<svg xmlns="http://www.w3.org/2000/svg" viewBox="0 0 512 512">
  <rect width="512" height="512" rx="112" fill="#312e81"/>
  <g fill="none" stroke="#a5b4fc" stroke-width="26" stroke-linecap="round" stroke-linejoin="round">
    <path d="M256 168v192M256 168c-32-26-74-40-118-40-24 0-47 4-68 12v192c21-8 44-12 68-12 44 0 86 14 118 40 32-26 74-40 118-40 24 0 47 4 68 12V140c-21-8-44-12-68-12-44 0-86 14-118 40z"/>
  </g>
  <circle cx="256" cy="264" r="42" fill="#818cf8"/>
  <path d="M238 264l12 12 26-28" stroke="#312e81" stroke-width="14" fill="none" stroke-linecap="round" stroke-linejoin="round"/>
</svg>
